<?xml version="1.0" ?>
<svg viewBox="0 0 32 32" xmlns="http://www.w3.org/2000/svg">
    <defs>
        <style>
            .cls-1 {
                fill: #101820;
            }
        </style>
    </defs>
    <title />
    <g data-name="Layer 42" id="Layer_42">
        <path class="cls-1"
            d="M2,29a1,1,0,0,1-1-1.11l.77-7a1,1,0,0,1,.29-.59L18.42,3.94a3.2,3.2,0,0,1,4.53,0l3.11,3.11a3.2,3.2,0,0,1,0,4.53L9.71,27.93a1,1,0,0,1-.59.29l-7,.77Zm7-1.78H9ZM3.73,21.45l-.6,5.42,5.42-.6,16.1-16.1a1.2,1.2,0,0,0,0-1.7L21.53,5.35a1.2,1.2,0,0,0-1.7,0Z" />
        <path class="cls-1"
            d="M23,14.21a1,1,0,0,1-.71-.29L16.08,7.69A1,1,0,0,1,17.5,6.27l6.23,6.23a1,1,0,0,1,0,1.42A1,1,0,0,1,23,14.21Z" />
        <rect class="cls-1" height="2" transform="translate(-8.31 14.13) rotate(-45)" width="11.01" x="7.39" y="16.1" />
        <path class="cls-1" d="M30,29H14a1,1,0,0,1,0-2H30a1,1,0,0,1,0,2Z" />
    </g>
</svg>