<svg height="24" viewBox="0 0 24 24" width="24" xmlns="http://www.w3.org/2000/svg">
    <g id="Airplane">
        <path clip-rule="evenodd"
            d="M0.396714 7.55442C0.538116 7.36297 0.761997 7.25 1.00001 7.25H4.00001C4.19892 7.25 4.38968 7.32902 4.53034 7.46967L6.31067 9.25H19.4C21.8024 9.25 23.75 11.1976 23.75 13.6C23.75 14.5113 23.0113 15.25 22.1 15.25H15.4799L12.681 21.3143C12.5584 21.5799 12.2925 21.75 12 21.75H9.00001C8.762 21.75 8.53812 21.637 8.39671 21.4456C8.25531 21.2541 8.21318 21.0069 8.28317 20.7794L9.98454 15.25H3.00001C2.67075 15.25 2.38 15.0353 2.28317 14.7206L0.283172 8.22056C0.213177 7.99308 0.255312 7.74588 0.396714 7.55442ZM2.01548 8.75L3.55394 13.75H11C11.238 13.75 11.4619 13.863 11.6033 14.0544C11.7447 14.2459 11.7868 14.4931 11.7168 14.7206L10.0155 20.25H11.5201L14.319 14.1857C14.4416 13.9201 14.7075 13.75 15 13.75H22.1C22.1828 13.75 22.25 13.6828 22.25 13.6C22.25 12.026 20.974 10.75 19.4 10.75H6.00001C5.80109 10.75 5.61033 10.671 5.46968 10.5303L3.68935 8.75H2.01548Z"
            id="Rectangle 22 (Stroke)" />
        <path clip-rule="evenodd"
            d="M11.2206 10.2168C11.6165 10.095 11.8387 9.67535 11.7168 9.27945L10.0155 3.75001H11.5201L14.319 9.81431C14.4926 10.1904 14.9382 10.3546 15.3143 10.181C15.6904 10.0074 15.8546 9.56181 15.681 9.18572L12.681 2.68572C12.5584 2.42011 12.2925 2.25001 12 2.25001H9.00001C8.762 2.25001 8.53812 2.36299 8.39671 2.55444C8.25531 2.74589 8.21318 2.99309 8.28317 3.22058L10.2832 9.72058C10.405 10.1165 10.8247 10.3387 11.2206 10.2168Z"
            id="Rectangle 23 (Stroke)" />
    </g>
</svg>